<svg width="624" height="239" viewBox="0 0 624 239" fill="none" xmlns="http://www.w3.org/2000/svg">
<path d="M624 117C624 181.617 571.617 234 507 234C442.383 234 390 181.617 390 117C390 52.3827 442.383 0 507 0C571.617 0 624 52.3827 624 117Z" fill="#f1865a"/>
<path d="M199 85C199 114.271 175.271 138 146 138C116.729 138 93 114.271 93 85C93 55.7289 116.729 32 146 32C175.271 32 199 55.7289 199 85Z" fill="#f1865a"/>
<path d="M169.045 201.797H142.687V235.481H93.7729V201.797H0V169.37L79.5802 59.5192H131.535L59.305 162.331H95.2935V132.418H142.687V162.331H169.045V201.797Z" fill="#fe5f1e"/>
<path d="M257.545 239C242.338 239 228.822 235.397 216.994 228.191C205.167 220.985 195.874 210.511 189.116 196.769C182.526 182.86 179.232 166.437 179.232 147.5C179.232 128.563 182.526 112.224 189.116 98.4821C195.874 84.5728 205.167 74.0151 216.994 66.8091C228.822 59.603 242.338 56 257.545 56C272.582 56 286.015 59.603 297.842 66.8091C309.669 74.0151 318.877 84.5728 325.467 98.4821C332.225 112.224 335.604 128.563 335.604 147.5C335.604 166.437 332.225 182.86 325.467 196.769C318.877 210.511 309.669 220.985 297.842 228.191C286.015 235.397 272.582 239 257.545 239ZM257.545 198.277C265.993 198.277 272.667 194.256 277.567 186.212C282.635 178 285.17 165.096 285.17 147.5C285.17 129.904 282.635 117.084 277.567 109.04C272.667 100.828 265.993 96.7225 257.545 96.7225C248.928 96.7225 242.085 100.828 237.016 109.04C232.116 117.084 229.666 129.904 229.666 147.5C229.666 165.096 232.116 178 237.016 186.212C242.085 194.256 248.928 198.277 257.545 198.277Z" fill="#fe5f1e"/>
<path d="M520 201.797H493.642V235.481H444.728V201.797H350.955V169.37L430.536 59.5192H482.491L410.26 162.331H446.249V132.418H493.642V162.331H520V201.797Z" fill="#fe5f1e"/>
</svg>
